<svg xmlns="http://www.w3.org/2000/svg" width="152" height="23" fill="none"><path fill="#303031" d="M8.621.64c2.516 0 4.61.895 6.281 2.684 1.493 1.594 2.239 3.489 2.239 5.684a8.133 8.133 0 0 1-1.137 4.195 8.128 8.128 0 0 1-3.2 3.117c-1.28.696-2.714 1.043-4.3 1.043a8.533 8.533 0 0 1-4.043-.996c-1.477-.773-2.61-1.87-3.399-3.293C.375 11.84.032 10.445.032 8.891c0-2.383.921-4.407 2.765-6.07A8.06 8.06 0 0 1 5.96 1.038 9.35 9.35 0 0 1 8.62.641Zm-.023 2.848c-1.485 0-2.743.54-3.774 1.617-1.047 1.086-1.57 2.407-1.57 3.961 0 .68.14 1.364.422 2.051.281.68.664 1.274 1.148 1.781 1.031 1.079 2.285 1.618 3.762 1.618 1.484 0 2.746-.54 3.785-1.618 1.04-1.085 1.559-2.386 1.559-3.902a5.63 5.63 0 0 0-.41-2.121 5.17 5.17 0 0 0-1.149-1.77c-1.07-1.078-2.328-1.617-3.773-1.617Zm12.915 4.453c.898-1.117 2.035-1.675 3.41-1.675 1.515 0 2.781.578 3.797 1.734.883 1 1.324 2.273 1.324 3.82 0 1.742-.57 3.137-1.711 4.184-.977.89-2.094 1.336-3.352 1.336-.703 0-1.328-.133-1.875-.399-.547-.265-1.078-.699-1.593-1.3v6.082c0 .367-.047.597-.141.691-.094.094-.324.14-.691.14h-1.254c-.36 0-.586-.046-.68-.14-.094-.094-.14-.324-.14-.691V7.438c0-.368.046-.598.14-.692.094-.094.32-.14.68-.14h1.254c.367 0 .597.046.691.14.094.094.14.324.14.691v.504Zm2.613.95c-.805 0-1.492.285-2.063.855a2.797 2.797 0 0 0-.855 2.05c0 .806.285 1.493.855 2.063.57.57 1.258.856 2.063.856.805 0 1.488-.285 2.05-.856.571-.578.856-1.277.856-2.097 0-.79-.285-1.461-.855-2.016a2.797 2.797 0 0 0-2.051-.855Zm9.598 3.386c.032.883.258 1.563.68 2.04.453.5 1.078.75 1.875.75.985 0 1.746-.383 2.285-1.149a.46.46 0 0 1 .387-.211c.023 0 .164.02.422.059l1.055.175c.289.047.484.106.586.176.101.07.152.188.152.352 0 .148-.082.355-.246.62-.164.266-.36.509-.586.727-1.04 1.016-2.379 1.524-4.02 1.524-1.03 0-1.98-.219-2.847-.656-1.04-.524-1.785-1.313-2.239-2.368-.32-.742-.48-1.574-.48-2.496 0-1.078.234-2.07.703-2.976a4.308 4.308 0 0 1 2.016-1.98c.812-.4 1.718-.598 2.718-.598 1.532 0 2.774.433 3.727 1.3.484.446.871 1.032 1.16 1.758.29.727.434 1.473.434 2.239 0 .304-.051.5-.153.585-.093.086-.32.13-.68.13h-6.949Zm5.016-1.851c-.117-.524-.3-.934-.55-1.23-.477-.571-1.122-.856-1.934-.856-.633 0-1.164.183-1.594.55-.422.368-.7.88-.832 1.536h4.91Zm6.962-2.531c.398-.508.785-.872 1.16-1.09.61-.36 1.313-.54 2.11-.54 1.28 0 2.289.419 3.023 1.255.305.351.516.742.633 1.171.125.43.187 1 .187 1.711v5.766c0 .367-.047.598-.14.691-.094.094-.32.141-.68.141h-1.266c-.351 0-.578-.047-.68-.14-.093-.102-.14-.333-.14-.692v-4.922c0-.797-.094-1.36-.281-1.687-.313-.547-.883-.82-1.711-.82-.75 0-1.309.238-1.676.714-.36.469-.539 1.192-.539 2.168v4.547c0 .367-.047.598-.14.691-.094.094-.325.141-.692.141h-1.254c-.36 0-.586-.047-.68-.14-.093-.094-.14-.325-.14-.692v-8.73c0-.368.047-.598.14-.692.094-.094.32-.14.68-.14h1.254c.367 0 .598.046.691.14.094.094.141.324.141.691v.458ZM63.235 3.71v3.55h4.688c.367 0 .597.048.691.141.094.094.14.325.14.692v1.043c0 .367-.046.597-.14.691-.094.094-.324.14-.691.14h-4.688v4.325h4.922c.36 0 .586.047.68.14.093.094.14.325.14.692v1.043c0 .367-.047.598-.14.691-.094.094-.32.141-.68.141H60.95c-.367 0-.598-.047-.691-.14-.094-.094-.141-.325-.141-.692V1.836c0-.367.047-.598.14-.691.094-.094.325-.141.692-.141h7.207c.352 0 .578.05.68.152.093.094.14.32.14.68v1.043c0 .367-.047.598-.14.691-.094.094-.32.14-.68.14h-4.922Zm10.267 4.184c.398-.508.785-.872 1.16-1.09.61-.36 1.312-.54 2.11-.54 1.28 0 2.288.419 3.023 1.255.304.351.515.742.632 1.171.125.43.188 1 .188 1.711v5.766c0 .367-.047.598-.14.691-.094.094-.32.141-.68.141h-1.266c-.352 0-.578-.047-.68-.14-.093-.102-.14-.333-.14-.692v-4.922c0-.797-.094-1.36-.282-1.687-.312-.547-.882-.82-1.71-.82-.75 0-1.309.238-1.676.714-.36.469-.54 1.192-.54 2.168v4.547c0 .367-.046.598-.14.691-.094.094-.324.141-.691.141h-1.254c-.36 0-.586-.047-.68-.14-.094-.094-.14-.325-.14-.692v-8.73c0-.368.046-.598.14-.692.094-.094.32-.14.68-.14h1.254c.367 0 .597.046.691.14.094.094.14.324.14.691v.458ZM85.35 9.113v7.055c0 .367-.047.598-.14.691-.094.094-.32.141-.68.141h-1.266c-.351 0-.578-.047-.68-.14-.093-.102-.14-.333-.14-.692V9.113h-.328c-.352 0-.578-.047-.68-.14-.094-.102-.14-.328-.14-.68v-.855c0-.368.046-.598.14-.692.094-.094.32-.14.68-.14h.328V3.897c0-.367.047-.597.14-.691.094-.094.321-.14.68-.14h1.266c.352 0 .578.046.68.14.093.102.14.332.14.691v2.707h1.23c.368 0 .598.047.692.141.094.094.14.324.14.691v.856c0 .36-.046.586-.14.68-.094.093-.324.14-.691.14h-1.23Zm4.958 3.164c.031.883.258 1.563.68 2.04.453.5 1.078.75 1.875.75.984 0 1.746-.383 2.285-1.149a.46.46 0 0 1 .387-.211c.023 0 .164.02.422.059l1.054.175c.29.047.485.106.586.176.102.07.153.188.153.352 0 .148-.082.355-.246.62-.165.266-.36.509-.586.727-1.04 1.016-2.38 1.524-4.02 1.524a6.231 6.231 0 0 1-2.847-.656c-1.04-.524-1.786-1.313-2.239-2.368-.32-.742-.48-1.574-.48-2.496 0-1.078.234-2.07.703-2.976a4.308 4.308 0 0 1 2.016-1.98c.812-.4 1.718-.598 2.718-.598 1.531 0 2.774.433 3.727 1.3.484.446.87 1.032 1.16 1.758.289.727.433 1.473.433 2.239 0 .304-.05.5-.152.585-.094.086-.32.13-.68.13h-6.949Zm5.016-1.851c-.117-.524-.3-.934-.55-1.23-.477-.571-1.122-.856-1.934-.856-.633 0-1.165.183-1.594.55-.422.368-.7.88-.832 1.536h4.91Zm6.962-2.25c.719-1.274 1.738-1.91 3.058-1.91.782 0 1.172.199 1.172.597 0 .078-.015.219-.047.422l-.164 1.031c-.039.29-.093.489-.164.598-.07.102-.183.152-.34.152a.972.972 0 0 1-.211-.035c-.398-.101-.714-.152-.949-.152-.679 0-1.246.254-1.699.762-.437.476-.656 1.265-.656 2.367v4.16c0 .367-.047.598-.141.691-.094.094-.324.141-.691.141H100.2c-.36 0-.586-.047-.68-.14-.094-.094-.14-.325-.14-.692v-8.73c0-.368.046-.598.14-.692.094-.094.32-.14.68-.14h1.254c.367 0 .597.046.691.14.094.094.141.324.141.691v.739Zm7.759-.235c.898-1.117 2.035-1.675 3.41-1.675 1.515 0 2.781.578 3.797 1.734.882 1 1.324 2.273 1.324 3.82 0 1.742-.571 3.137-1.711 4.184-.977.89-2.094 1.336-3.352 1.336-.703 0-1.328-.133-1.875-.399-.547-.265-1.078-.699-1.593-1.3v6.082c0 .367-.047.597-.141.691-.094.094-.324.14-.691.14h-1.254c-.36 0-.586-.046-.68-.14-.094-.094-.141-.324-.141-.691V7.438c0-.368.047-.598.141-.692.094-.094.32-.14.68-.14h1.254c.367 0 .597.046.691.14.094.094.141.324.141.691v.504Zm2.613.95c-.805 0-1.492.285-2.063.855a2.798 2.798 0 0 0-.855 2.05c0 .806.285 1.493.855 2.063.571.57 1.258.856 2.063.856.805 0 1.488-.285 2.051-.856.57-.578.855-1.277.855-2.097 0-.79-.285-1.461-.855-2.016a2.799 2.799 0 0 0-2.051-.855Zm10.091-.715c.718-1.274 1.738-1.91 3.058-1.91.781 0 1.172.199 1.172.597 0 .078-.016.219-.047.422l-.164 1.031c-.039.29-.094.489-.164.598-.07.102-.184.152-.34.152a.963.963 0 0 1-.211-.035c-.398-.101-.715-.152-.949-.152-.68 0-1.246.254-1.699.762-.438.476-.656 1.265-.656 2.367v4.16c0 .367-.047.598-.141.691-.094.094-.324.141-.691.141h-1.254c-.36 0-.586-.047-.68-.14-.094-.094-.141-.325-.141-.692v-8.73c0-.368.047-.598.141-.692.094-.094.32-.14.68-.14h1.254c.367 0 .597.046.691.14.094.094.141.324.141.691v.739Zm7.735-.739v8.731c0 .367-.047.598-.141.691-.093.094-.32.141-.679.141h-1.266c-.359 0-.586-.047-.68-.14-.093-.094-.14-.325-.14-.692v-8.73c0-.368.047-.598.14-.692.094-.094.321-.14.68-.14h1.266c.359 0 .586.046.679.14.094.094.141.324.141.691Zm-1.453-6.96c.484 0 .894.171 1.23.515.344.336.516.746.516 1.23 0 .485-.172.9-.516 1.243a1.655 1.655 0 0 1-1.23.515 1.69 1.69 0 0 1-1.242-.515 1.727 1.727 0 0 1-.504-1.254c0-.477.172-.883.515-1.219a1.68 1.68 0 0 1 1.231-.515Zm9.786 7.535-.352.433a3.282 3.282 0 0 1-.351.364.461.461 0 0 1-.246.058c-.078 0-.356-.125-.832-.375-.196-.101-.457-.152-.786-.152-.328 0-.601.086-.82.258a.766.766 0 0 0-.316.632c0 .235.109.43.328.586.219.149.66.34 1.324.575.945.328 1.621.632 2.027.914.758.547 1.137 1.316 1.137 2.308 0 1.14-.441 2.063-1.324 2.766-.789.64-1.801.96-3.035.96-1.196 0-2.27-.358-3.223-1.077-.351-.266-.527-.5-.527-.703 0-.118.109-.305.328-.563l.445-.516c.242-.289.442-.433.598-.433.109 0 .34.144.691.433.477.391 1.051.586 1.723.586.367 0 .676-.109.926-.328a1.03 1.03 0 0 0 .386-.82c0-.297-.101-.527-.304-.691-.203-.172-.637-.38-1.301-.622-.984-.359-1.648-.66-1.992-.902-.68-.492-1.02-1.21-1.02-2.156 0-1.133.442-2.012 1.324-2.637.649-.46 1.446-.691 2.391-.691.781 0 1.496.129 2.145.386.656.258.984.54.984.844 0 .117-.109.305-.328.563Zm4.63 4.265c.031.883.258 1.563.679 2.04.454.5 1.079.75 1.875.75.985 0 1.746-.383 2.286-1.149a.458.458 0 0 1 .386-.211c.024 0 .164.02.422.059l1.055.175c.289.047.484.106.586.176.101.07.152.188.152.352 0 .148-.082.355-.246.62a3.713 3.713 0 0 1-.586.727c-1.039 1.016-2.379 1.524-4.019 1.524-1.032 0-1.981-.219-2.848-.656-1.039-.524-1.785-1.313-2.238-2.368-.321-.742-.481-1.574-.481-2.496 0-1.078.235-2.07.703-2.976a4.307 4.307 0 0 1 2.016-1.98c.812-.4 1.719-.598 2.719-.598 1.531 0 2.773.433 3.726 1.3.485.446.871 1.032 1.16 1.758.289.727.434 1.473.434 2.239 0 .304-.051.5-.152.585-.094.086-.321.13-.68.13h-6.949Zm5.015-1.851c-.117-.524-.3-.934-.55-1.23-.477-.571-1.122-.856-1.934-.856-.633 0-1.164.183-1.594.55-.422.368-.699.88-.832 1.536h4.91Z"/></svg>