<svg xmlns="http://www.w3.org/2000/svg" width="281" height="43" fill="none"><g clip-path="url(#a)"><g clip-path="url(#b)"><path fill="#71A894" d="M68 21.5c0 11.046-9.02 20-20.148 20H47.43l-.156-.004c-.114 0-.23-.007-.344-.012-.044 0-.088-.004-.133-.007l-.24-.013-.175-.012-.06-.005-.156-.012-.14-.012a8.87 8.87 0 0 1-.172-.016l-.097-.01a14.872 14.872 0 0 1-.406-.046 10.618 10.618 0 0 1-.525-.071l-.186-.03a5.808 5.808 0 0 1-.184-.03l-.183-.032a9.203 9.203 0 0 1-.24-.044c-.064-.01-.12-.023-.18-.035l-.126-.026a17.008 17.008 0 0 1-.364-.079l-.178-.04-.18-.044c-.12-.029-.238-.06-.357-.091l-.177-.048-.177-.05a21.719 21.719 0 0 1-.352-.103l-.15-.046-.074-.023-.143-.046c-.123-.04-.245-.081-.365-.125l-.174-.063-.018-.006-.17-.063a11.14 11.14 0 0 1-.536-.206l-.177-.072-.177-.074a11.92 11.92 0 0 1-.35-.152l-.15-.065-.049-.021-.118-.055c-.504-.234-.996-.49-1.478-.765l-.15-.087a11.784 11.784 0 0 1-.243-.144l-.126-.078-.047-.029-.12-.074a15.833 15.833 0 0 1-.508-.329L36.467 38a13.189 13.189 0 0 1-.462-.324l-.013-.01a20.876 20.876 0 0 1-1.191-.933 4.27 4.27 0 0 1-.126-.11 5.888 5.888 0 0 1-.212-.187 13.419 13.419 0 0 1-.436-.397 19.501 19.501 0 0 1-1.27-1.301c-.048-.056-.093-.104-.138-.157l-.157-.182a17.99 17.99 0 0 1-.45-.547l-.12-.154a16.053 16.053 0 0 1-.337-.446l-.189-.26a25.047 25.047 0 0 1-.355-.518 10.458 10.458 0 0 1-.176-.27c-.015-.022-.03-.044-.042-.066a8.496 8.496 0 0 1-.16-.257 12.525 12.525 0 0 1-.17-.284c-.057-.096-.112-.187-.167-.286l-.094-.167-.067-.125a13.458 13.458 0 0 1-.139-.257c-.031-.063-.063-.12-.094-.18a32.85 32.85 0 0 1-.112-.22l-.109-.223a19.154 19.154 0 0 1-.41-.905l-.096-.23a7.217 7.217 0 0 1-.092-.23c-.03-.076-.063-.153-.09-.23-.026-.078-.058-.157-.087-.235a28.042 28.042 0 0 1-.32-.949c-.035-.116-.07-.232-.104-.35l-.05-.175a19.987 19.987 0 0 1-.183-.708l-.042-.177a16.3 16.3 0 0 1-.079-.361l-.026-.125a8.607 8.607 0 0 1-.035-.178 8.915 8.915 0 0 1-.077-.421l-.03-.182-.029-.184a20.88 20.88 0 0 1-.144-1.192c-.005-.046-.009-.093-.012-.139l-.013-.155c0-.02-.003-.04-.004-.06a14.37 14.37 0 0 1-.032-.544 21.31 21.31 0 0 1-.013-.34l-.004-.155v-.678a17.394 17.394 0 0 1 .038-1.01c.008-.11.015-.222.024-.332l.016-.19.022-.225.005-.058a12.78 12.78 0 0 1 .053-.452l.023-.175.022-.157a18.452 18.452 0 0 1 .109-.687 15.36 15.36 0 0 1 .107-.55c.02-.098.042-.196.063-.293a17.206 17.206 0 0 1 .227-.906 15.876 15.876 0 0 1 .18-.612 20.108 20.108 0 0 1 .184-.56l.1-.287.004-.01c.021-.063.044-.12.067-.18l.057-.153.19-.479.062-.157.03-.072a7.954 7.954 0 0 1 .097-.224c.03-.067.063-.134.09-.2.068-.148.136-.295.207-.438l.073-.148c.024-.048.04-.083.063-.125.022-.042.034-.07.053-.104.018-.034.037-.075.058-.112a13.537 13.537 0 0 1 .197-.37 18.71 18.71 0 0 1 .504-.868 15.172 15.172 0 0 1 .373-.585l.105-.157c.197-.292.4-.576.611-.853l.1-.13c.02-.028.041-.056.063-.083l.12-.154c.147-.185.297-.367.45-.547.052-.062.105-.125.157-.182.053-.058.092-.105.138-.157l.149-.165c.036-.04.072-.08.11-.119.316-.343.645-.675.986-.994a20.131 20.131 0 0 1 3.867 4.993 13.66 13.66 0 0 0-3.854 10.014 13.6 13.6 0 0 0 2.077 6.777L55.164 9.822a13.851 13.851 0 0 0-7.314-2.07c-1.6-.003-3.187.271-4.691.808a26.33 26.33 0 0 0-3.87-5.17c.392-.183.791-.354 1.196-.512l.168-.062c.14-.054.28-.105.422-.155l.177-.063c.06-.021.118-.04.178-.062s.126-.043.192-.063c.078-.025.156-.05.236-.074l.199-.063c.152-.045.305-.088.46-.13l.13-.035c.055-.015.11-.03.166-.043l.19-.049.238-.056L43.36 2l.143-.031a18.512 18.512 0 0 1 .78-.155h.01c.08-.015.161-.028.242-.041.138-.023.276-.044.415-.063l.143-.022c.216-.03.433-.056.653-.079l.1-.01.177-.016.26-.022.097-.007.171-.011h.02l.207-.012c.095-.005.189-.01.286-.013l.197-.007.15-.003h.863l.156.003c.114 0 .229.008.343.013.045 0 .09.004.134.007.08.003.16.008.24.013l.174.012.06.004.157.013.14.011a8.422 8.422 0 0 1 .268.026c.136.014.272.029.407.046l.154.02c.126.016.248.033.371.052l.185.028.184.03.183.032c.081.014.162.029.24.045.064.01.12.022.18.034l.126.026c.122.025.243.051.364.079l.178.041.18.043c.12.029.238.06.357.092l.177.047.177.05c.117.033.235.068.352.103l.201.063.201.062.2.066c.132.045.265.092.396.14l.197.072.162.063c.085.031.168.062.252.097l.172.07.193.08.188.083.19.084.188.086a12.785 12.785 0 0 1 .433.205l.13.062c.063.03.126.063.189.094.126.063.245.125.368.193l.16.086c.11.063.219.121.326.184l.126.071c.157.091.311.184.464.28l.114.07.105.066c.063.042.13.084.196.125l.136.09c.044.03.085.056.126.086a19.178 19.178 0 0 1 1.15.838c.18.14.358.285.533.432l.176.149.189.163c.039.033.077.068.116.103a12.249 12.249 0 0 1 .396.364 19.04 19.04 0 0 1 1.36 1.416l.146.17c.148.173.293.349.435.528l.096.121c.13.167.258.335.382.504l-18.37 18.23-5.244 5.205a13.849 13.849 0 0 0 7.314 2.072c7.65 0 13.852-6.157 13.852-13.75 0-.162 0-.324-.01-.484l2.834-2.812 2.59-2.572c.036.116.071.233.105.35l.05.175a19.09 19.09 0 0 1 .183.708l.041.177c.028.12.055.24.08.361l.026.125.035.178.045.24.032.181.03.183.029.183c.019.123.036.246.052.369l.02.153a13.968 13.968 0 0 1 .072.67l.012.139.013.156c0 .02.003.039.004.059a14.37 14.37 0 0 1 .025.411c0 .045.005.088.007.133.005.114.01.227.013.341l.004.154v.16c.003.088.004.175.004.261Z"/><path fill="#303031" d="M34 6.977a19.765 19.765 0 0 0-1.245 1.279l-.138.156-.157.182c-.154.18-.304.362-.45.547l-.12.155a21.958 21.958 0 0 0-1.01 1.423 12.41 12.41 0 0 0-.346.556 20.987 20.987 0 0 0-.4.696 13.808 13.808 0 0 0-4.558-3.125 13.896 13.896 0 0 0-5.428-1.096c-7.65 0-13.852 6.156-13.852 13.75s6.202 13.75 13.852 13.75c1.6.002 3.187-.272 4.692-.809a26.307 26.307 0 0 0 3.871 5.168 20.195 20.195 0 0 1-8.563 1.891C9.021 41.5 0 32.546 0 21.5s9.02-20 20.148-20A20.197 20.197 0 0 1 34 6.977Z"/></g><path fill="#303031" d="M88.828 11.188c3.354 0 6.146 1.192 8.375 3.578 1.99 2.125 2.985 4.65 2.985 7.578 0 2.01-.506 3.875-1.516 5.593a10.839 10.839 0 0 1-4.266 4.157c-1.708.927-3.62 1.39-5.734 1.39-1.917 0-3.714-.442-5.39-1.328-1.97-1.031-3.48-2.494-4.532-4.39-.917-1.646-1.375-3.506-1.375-5.578 0-3.178 1.23-5.875 3.688-8.094a10.745 10.745 0 0 1 4.218-2.375 12.466 12.466 0 0 1 3.547-.531Zm-.031 3.796c-1.98 0-3.656.72-5.031 2.157-1.396 1.448-2.094 3.208-2.094 5.28 0 .907.187 1.819.562 2.735a7.63 7.63 0 0 0 1.532 2.375c1.375 1.438 3.046 2.157 5.015 2.157 1.98 0 3.662-.72 5.047-2.157 1.385-1.448 2.078-3.182 2.078-5.203 0-.979-.182-1.922-.547-2.828a6.895 6.895 0 0 0-1.53-2.36c-1.428-1.437-3.105-2.156-5.032-2.156Zm17.22 5.938c1.198-1.49 2.713-2.235 4.547-2.235 2.021 0 3.708.771 5.062 2.313 1.177 1.333 1.766 3.031 1.766 5.094 0 2.323-.761 4.182-2.281 5.578-1.302 1.187-2.792 1.781-4.469 1.781-.938 0-1.771-.177-2.5-.531-.729-.354-1.438-.932-2.125-1.734v8.109c0 .49-.063.797-.188.922s-.432.187-.922.187h-1.671c-.48 0-.782-.062-.907-.187s-.187-.433-.187-.922V20.25c0-.49.062-.797.187-.922s.427-.187.907-.187h1.671c.49 0 .797.062.922.187s.188.432.188.922v.672Zm3.484 1.265c-1.073 0-1.989.38-2.75 1.141-.76.76-1.14 1.672-1.14 2.735 0 1.072.38 1.99 1.14 2.75.761.76 1.677 1.14 2.75 1.14s1.985-.38 2.735-1.14c.76-.771 1.14-1.704 1.14-2.797 0-1.052-.38-1.948-1.14-2.688-.761-.76-1.672-1.14-2.735-1.14Zm12.798 4.516c.042 1.177.344 2.084.907 2.719.604.666 1.437 1 2.5 1 1.312 0 2.328-.51 3.046-1.531.136-.188.308-.282.516-.282.031 0 .219.026.563.078l1.406.235c.385.062.646.14.781.234.136.094.203.25.203.469 0 .198-.109.474-.328.828a4.99 4.99 0 0 1-.781.969c-1.386 1.354-3.172 2.031-5.36 2.031-1.375 0-2.64-.292-3.796-.875-1.386-.698-2.381-1.75-2.985-3.156-.427-.99-.64-2.1-.64-3.328 0-1.438.312-2.76.937-3.969a5.742 5.742 0 0 1 2.688-2.64c1.083-.532 2.291-.797 3.625-.797 2.041 0 3.698.578 4.968 1.734.646.594 1.162 1.375 1.547 2.344.386.968.578 1.963.578 2.984 0 .406-.067.667-.203.781-.125.115-.427.172-.906.172h-9.266Zm6.688-2.469c-.156-.698-.401-1.244-.735-1.64-.635-.76-1.494-1.14-2.578-1.14-.843 0-1.552.244-2.125.733-.562.49-.932 1.172-1.109 2.047h6.547Zm9.282-3.375c.532-.677 1.047-1.161 1.547-1.453.813-.479 1.75-.718 2.813-.718 1.708 0 3.052.557 4.031 1.671.406.47.687.99.844 1.563.166.573.25 1.333.25 2.281v7.688c0 .49-.063.797-.188.922-.125.124-.427.187-.906.187h-1.688c-.468 0-.77-.063-.906-.188-.125-.135-.187-.442-.187-.921v-6.563c0-1.062-.125-1.812-.375-2.25-.417-.729-1.177-1.094-2.282-1.094-1 0-1.744.318-2.234.953-.479.625-.719 1.589-.719 2.891v6.063c0 .49-.062.797-.187.922-.125.124-.432.187-.922.187h-1.672c-.479 0-.781-.063-.906-.188-.125-.124-.188-.432-.188-.921V20.25c0-.49.063-.797.188-.922s.427-.187.906-.187h1.672c.49 0 .797.062.922.187s.187.432.187.922v.61Zm23.378-5.578v4.735h6.25c.489 0 .797.062.922.187s.187.432.187.922v1.39c0 .49-.062.797-.187.922s-.433.188-.922.188h-6.25v5.766h6.562c.48 0 .782.062.907.187s.187.432.187.922v1.39c0 .49-.062.797-.187.922-.125.126-.427.188-.907.188H158.6c-.49 0-.797-.063-.922-.188-.125-.124-.187-.432-.187-.921V12.78c0-.49.062-.797.187-.922s.432-.187.922-.187h9.609c.469 0 .771.068.907.203.125.125.187.427.187.906v1.39c0 .49-.062.798-.187.923s-.427.187-.907.187h-6.562Zm13.689 5.578c.531-.677 1.046-1.161 1.546-1.453.813-.479 1.75-.718 2.813-.718 1.708 0 3.052.557 4.031 1.671.406.47.688.99.844 1.563.167.573.25 1.333.25 2.281v7.688c0 .49-.063.797-.188.922-.125.124-.427.187-.906.187h-1.687c-.469 0-.771-.063-.907-.188-.125-.135-.187-.442-.187-.921v-6.563c0-1.062-.125-1.812-.375-2.25-.417-.729-1.177-1.094-2.281-1.094-1 0-1.745.318-2.235.953-.479.625-.718 1.589-.718 2.891v6.063c0 .49-.063.797-.188.922-.125.124-.432.187-.922.187h-1.672c-.479 0-.781-.063-.906-.188-.125-.124-.187-.432-.187-.921V20.25c0-.49.062-.797.187-.922s.427-.187.906-.187h1.672c.49 0 .797.062.922.187s.188.432.188.922v.61Zm15.798 1.625v9.407c0 .49-.063.797-.188.922-.125.124-.427.187-.906.187h-1.687c-.469 0-.771-.063-.907-.188-.125-.135-.187-.442-.187-.921v-9.407h-.438c-.468 0-.771-.062-.906-.187-.125-.136-.187-.438-.187-.906V20.25c0-.49.062-.797.187-.922s.427-.187.906-.187h.438v-3.61c0-.49.062-.797.187-.922s.427-.187.907-.187h1.687c.469 0 .771.062.906.187.125.136.188.443.188.922v3.61h1.64c.49 0 .797.062.922.187s.188.432.188.922v1.14c0 .48-.063.782-.188.907s-.432.187-.922.187h-1.64Zm6.61 4.22c.042 1.176.344 2.082.907 2.718.604.666 1.437 1 2.5 1 1.312 0 2.328-.51 3.047-1.531.135-.188.307-.282.515-.282.031 0 .219.026.563.078l1.406.235c.385.062.646.14.781.234.136.094.203.25.203.469 0 .198-.109.474-.328.828a4.99 4.99 0 0 1-.781.969c-1.386 1.354-3.172 2.031-5.359 2.031-1.375 0-2.641-.292-3.797-.875-1.386-.698-2.381-1.75-2.985-3.156-.427-.99-.64-2.1-.64-3.328 0-1.438.312-2.76.937-3.969a5.742 5.742 0 0 1 2.688-2.64c1.083-.532 2.291-.797 3.625-.797 2.041 0 3.698.578 4.968 1.734.646.594 1.162 1.375 1.547 2.344.386.968.578 1.963.578 2.984 0 .406-.067.667-.203.781-.125.115-.427.172-.906.172h-9.266Zm6.688-2.47c-.156-.698-.401-1.244-.734-1.64-.636-.76-1.495-1.14-2.579-1.14-.843 0-1.552.244-2.125.733-.562.49-.932 1.172-1.109 2.047h6.547Zm9.282-3c.959-1.698 2.318-2.547 4.078-2.547 1.042 0 1.563.266 1.563.797 0 .104-.021.292-.063.563l-.218 1.375c-.052.385-.125.65-.219.797-.094.135-.245.203-.453.203a1.28 1.28 0 0 1-.281-.047c-.532-.135-.954-.203-1.266-.203-.906 0-1.661.338-2.266 1.015-.583.636-.875 1.688-.875 3.157v5.547c0 .49-.062.797-.187.922-.125.124-.432.187-.922.187h-1.672c-.479 0-.781-.063-.906-.188-.125-.124-.188-.432-.188-.921V20.25c0-.49.063-.797.188-.922s.427-.187.906-.187h1.672c.49 0 .797.062.922.187s.187.432.187.922v.984Zm10.345-.312c1.198-1.49 2.714-2.235 4.547-2.235 2.021 0 3.709.771 5.063 2.313 1.177 1.333 1.765 3.031 1.765 5.094 0 2.323-.76 4.182-2.281 5.578-1.302 1.187-2.792 1.781-4.469 1.781-.937 0-1.77-.177-2.5-.531-.729-.354-1.437-.932-2.125-1.734v8.109c0 .49-.062.797-.187.922s-.432.187-.922.187h-1.672c-.479 0-.781-.062-.906-.187s-.188-.433-.188-.922V20.25c0-.49.063-.797.188-.922s.427-.187.906-.187h1.672c.49 0 .797.062.922.187s.187.432.187.922v.672Zm3.485 1.265c-1.073 0-1.99.38-2.75 1.141-.761.76-1.141 1.672-1.141 2.735 0 1.072.38 1.99 1.141 2.75.76.76 1.677 1.14 2.75 1.14s1.984-.38 2.734-1.14c.761-.771 1.141-1.704 1.141-2.797 0-1.052-.38-1.948-1.141-2.688-.76-.76-1.672-1.14-2.734-1.14Zm13.454-.953c.958-1.698 2.318-2.547 4.078-2.547 1.042 0 1.563.266 1.563.797 0 .104-.021.292-.063.563l-.219 1.375c-.052.385-.125.65-.218.797-.094.135-.245.203-.453.203-.063 0-.157-.016-.282-.047-.531-.135-.953-.203-1.265-.203-.907 0-1.662.338-2.266 1.015-.583.636-.875 1.688-.875 3.157v5.547c0 .49-.062.797-.187.922-.125.124-.433.187-.922.187h-1.672c-.479 0-.781-.063-.906-.188-.125-.124-.188-.432-.188-.921V20.25c0-.49.063-.797.188-.922s.427-.187.906-.187h1.672c.489 0 .797.062.922.187s.187.432.187.922v.984Zm10.314-.984v11.64c0 .49-.063.797-.188.922-.125.126-.427.188-.906.188h-1.687c-.48 0-.782-.063-.907-.188-.125-.124-.187-.432-.187-.921V20.25c0-.49.062-.797.187-.922s.427-.187.907-.187h1.687c.479 0 .781.062.906.187s.188.432.188.922Zm-1.938-9.281c.646 0 1.193.229 1.641.687.458.448.687.995.687 1.64 0 .647-.229 1.199-.687 1.657a2.207 2.207 0 0 1-1.641.688c-.645 0-1.198-.23-1.656-.688a2.303 2.303 0 0 1-.672-1.672c0-.635.229-1.177.688-1.625a2.238 2.238 0 0 1 1.64-.687Zm13.049 10.047-.469.578c-.229.26-.386.422-.469.484a.612.612 0 0 1-.328.078c-.104 0-.474-.166-1.109-.5-.261-.135-.61-.203-1.047-.203-.438 0-.802.115-1.094.344-.281.219-.422.5-.422.844 0 .312.146.573.438.78.291.199.88.454 1.765.767 1.261.437 2.162.843 2.703 1.218 1.011.73 1.516 1.756 1.516 3.078 0 1.521-.589 2.75-1.766 3.688-1.052.854-2.401 1.281-4.047 1.281a6.953 6.953 0 0 1-4.296-1.437c-.469-.354-.704-.667-.704-.938 0-.156.146-.406.438-.75l.594-.687c.323-.386.588-.578.797-.578.145 0 .453.192.921.578.636.52 1.401.78 2.297.78.49 0 .901-.145 1.235-.437.343-.291.515-.656.515-1.093 0-.396-.135-.703-.406-.922-.271-.23-.849-.506-1.734-.828-1.313-.48-2.198-.88-2.657-1.203-.906-.657-1.359-1.615-1.359-2.875 0-1.51.589-2.683 1.766-3.516.864-.615 1.927-.922 3.187-.922 1.042 0 1.995.172 2.86.516.875.343 1.312.718 1.312 1.125 0 .156-.146.406-.437.75Zm6.173 5.687c.041 1.177.343 2.084.906 2.719.604.666 1.437 1 2.5 1 1.312 0 2.328-.51 3.047-1.531.135-.188.307-.282.515-.282.032 0 .219.026.563.078l1.406.235c.386.062.646.14.781.234.136.094.204.25.204.469 0 .198-.11.474-.329.828a4.953 4.953 0 0 1-.781.969c-1.385 1.354-3.172 2.031-5.359 2.031-1.375 0-2.641-.292-3.797-.875-1.386-.698-2.38-1.75-2.984-3.156-.428-.99-.641-2.1-.641-3.328 0-1.438.312-2.76.937-3.969a5.746 5.746 0 0 1 2.688-2.64c1.083-.532 2.292-.797 3.625-.797 2.042 0 3.698.578 4.969 1.734.645.594 1.161 1.375 1.547 2.344.385.968.578 1.963.578 2.984 0 .406-.068.667-.203.781-.125.115-.428.172-.907.172h-9.265Zm6.687-2.469c-.156-.698-.401-1.244-.734-1.64-.636-.76-1.495-1.14-2.578-1.14-.844 0-1.552.244-2.125.733-.563.49-.933 1.172-1.11 2.047h6.547Z"/></g><defs><clipPath id="a"><path fill="#fff" d="M0 0h281v43H0z"/></clipPath><clipPath id="b"><path fill="#fff" d="M0 1.5h68v40H0z"/></clipPath></defs></svg>